<?xml version="1.0" standalone="no"?>
<!DOCTYPE svg PUBLIC "-//W3C//DTD SVG 20010904//EN"
 "http://www.w3.org/TR/2001/REC-SVG-20010904/DTD/svg10.dtd">
<svg version="1.0" xmlns="http://www.w3.org/2000/svg"
 width="400.000000pt" height="400.000000pt" viewBox="0 0 400.000000 400.000000"
 preserveAspectRatio="xMidYMid meet">
<metadata>
Created by potrace 1.14, written by Peter Selinger 2001-2017
</metadata>
<g transform="translate(0.000000,400.000000) scale(0.100000,-0.100000)"
fill="#000000" stroke="none">
<path d="M0 2000 l0 -2000 2000 0 2000 0 0 2000 0 2000 -2000 0 -2000 0 0
-2000z m1507 1364 c8 -20 -8 -36 -26 -25 -15 10 -8 41 9 41 6 0 13 -7 17 -16z
m1413 -68 c0 -3 -4 -8 -10 -11 -5 -3 -10 -1 -10 4 0 6 5 11 10 11 6 0 10 -2
10 -4z m-1955 -82 c4 -17 10 -20 30 -17 13 3 37 2 52 -2 l28 -7 -24 -9 c-14
-6 -37 -7 -53 -4 -27 6 -28 5 -28 -29 0 -19 -4 -38 -10 -41 -6 -4 -10 10 -10
34 l0 41 -67 2 -68 2 68 3 67 4 1 52 c1 30 4 39 6 22 2 -16 6 -40 8 -51z
m1653 9 c-2 -10 -10 -18 -18 -18 -8 0 -16 8 -18 18 -2 12 3 17 18 17 15 0 20
-5 18 -17z m-1402 -68 c18 -70 -20 -119 -92 -119 -74 0 -61 60 26 120 44 30
58 30 66 -1z m104 -11 c0 -28 -22 -104 -30 -104 -5 0 -4 15 1 32 5 18 9 45 9
60 0 16 5 28 10 28 6 0 10 -7 10 -16z m1700 -24 c0 -5 -4 -10 -10 -10 -5 0
-10 5 -10 10 0 6 5 10 10 10 6 0 10 -4 10 -10z m426 -210 c19 0 34 -4 34 -10
0 -5 -16 -10 -35 -10 -34 0 -35 -1 -37 -42 l-1 -43 -4 43 c-4 39 -6 42 -34 42
-18 0 -28 4 -24 10 3 6 17 10 31 10 21 0 24 5 26 38 l1 37 4 -37 c4 -36 6 -38
39 -38z m-2913 34 c9 -10 -4 -34 -18 -34 -17 0 -28 17 -20 30 7 11 28 13 38 4z
m1557 -19 c0 -18 -5 -25 -19 -25 -11 0 -23 5 -26 10 -11 18 3 40 25 40 15 0
20 -7 20 -25z m-782 -7 c7 -7 12 -32 12 -57 0 -41 -1 -43 -14 -25 -13 16 -13
10 -1 -46 8 -36 25 -103 38 -150 14 -47 33 -123 42 -170 17 -81 17 -87 0 -138
-10 -28 -16 -54 -14 -56 2 -2 33 -23 67 -46 71 -48 84 -67 57 -86 -16 -12 -29
-8 -98 28 l-80 42 -48 -53 c-26 -29 -60 -73 -75 -97 -50 -78 -39 -37 23 88
l61 123 -13 100 c-23 186 -44 265 -99 390 -31 69 -44 115 -33 115 2 0 35 11
73 25 80 28 86 29 102 13z m1702 -92 c0 -2 -7 -7 -16 -10 -8 -3 -12 -2 -9 4 6
10 25 14 25 6z m-719 -46 c75 -14 203 -66 272 -110 128 -83 233 -206 290 -339
32 -74 30 -95 -14 -182 -35 -70 -80 -95 -187 -105 -74 -7 -110 -24 -51 -24 62
0 15 -20 -61 -26 -86 -7 -259 9 -269 24 -3 5 -42 10 -86 10 -58 0 -94 6 -132
21 -29 11 -53 17 -53 13 0 -8 46 -57 74 -79 8 -7 36 -13 61 -13 45 0 46 0 44
-32 -1 -18 0 -39 2 -47 3 -9 -8 -17 -28 -23 -49 -13 -74 -52 -72 -112 1 -38
-5 -65 -26 -108 -16 -32 -33 -54 -39 -51 -6 3 -8 3 -4 -2 4 -4 -11 -43 -33
-86 -34 -66 -59 -143 -41 -124 3 3 12 -1 21 -9 9 -8 23 -15 31 -16 42 -6 56 2
80 46 34 66 37 37 3 -35 -27 -58 -29 -60 -68 -60 -22 0 -79 15 -128 33 -48 18
-89 30 -92 26 -7 -11 112 -67 170 -82 77 -18 79 -31 5 -23 -88 10 -165 51
-251 132 -74 71 -186 225 -167 232 6 2 15 -4 20 -12 18 -33 86 -89 99 -82 5 4
-8 21 -29 38 -58 48 -138 181 -166 277 -10 32 -16 91 -16 147 l0 93 40 0 c33
0 42 4 51 24 16 35 0 98 -29 111 -33 15 -34 29 -4 102 51 123 173 282 265 341
15 10 25 22 22 25 -3 4 -2 5 1 2 12 -8 45 16 38 27 -4 6 -3 8 4 4 6 -3 26 2
44 12 82 46 278 66 409 42z m-1281 -180 c0 -5 -4 -10 -10 -10 -5 0 -10 5 -10
10 0 6 5 10 10 10 6 0 10 -4 10 -10z m-365 -80 c0 -7 -6 -15 -12 -17 -8 -3
-13 4 -13 17 0 13 5 20 13 18 6 -3 12 -11 12 -18z m213 -31 c-2 -6 -8 -10 -13
-10 -5 0 -11 4 -13 10 -2 6 4 11 13 11 9 0 15 -5 13 -11z m172 -122 c0 -2 -10
-12 -22 -23 l-23 -19 19 23 c18 21 26 27 26 19z m2770 -7 c0 -5 -7 -10 -15
-10 -8 0 -15 5 -15 10 0 6 7 10 15 10 8 0 15 -4 15 -10z m-530 -25 c16 -20 6
-45 -19 -45 -23 0 -32 18 -19 43 11 21 22 22 38 2z m-2183 -11 c-3 -3 -12 -4
-19 -1 -8 3 -5 6 6 6 11 1 17 -2 13 -5z m-157 -38 c0 -2 -8 -10 -17 -17 -16
-13 -17 -12 -4 4 13 16 21 21 21 13z m-650 -47 c0 -5 -4 -9 -10 -9 -5 0 -10 7
-10 16 0 8 5 12 10 9 6 -3 10 -10 10 -16z m105 1 c-8 -12 -65 -13 -65 -2 0 5
16 9 35 10 21 1 33 -3 30 -8z m504 7 c-2 -1 -13 -9 -24 -17 -19 -14 -19 -14
-6 3 7 9 18 17 24 17 6 0 8 -1 6 -3z m-54 -38 c-4 -6 -62 -55 -129 -110 -66
-54 -136 -111 -154 -126 -37 -32 -52 -39 -52 -24 0 9 16 23 193 159 45 34 96
73 112 87 33 27 39 30 30 14z m-337 -52 c2 -10 -3 -17 -11 -17 -16 0 -30 24
-19 34 10 10 27 1 30 -17z m3095 6 c-7 -2 -19 -2 -25 0 -7 3 -2 5 12 5 14 0
19 -2 13 -5z m-638 -153 c-20 -43 -87 -120 -106 -120 -7 0 -10 -3 -6 -6 9 -9
73 33 97 64 l21 27 -7 -43 c-5 -35 -2 -48 13 -65 32 -35 82 -131 100 -189 23
-76 20 -181 -6 -242 -43 -97 -150 -196 -261 -240 -101 -40 -242 -38 -338 4
l-45 20 6 61 c8 85 20 95 85 70 28 -11 80 -25 114 -30 61 -8 62 -9 18 -11 -42
-2 -43 -2 -16 -10 101 -31 327 103 356 211 15 54 -4 149 -29 149 -5 0 -20 -24
-35 -53 -14 -30 -55 -83 -93 -120 -73 -73 -75 -83 -7 -37 43 28 57 31 32 6
-51 -49 -236 -113 -253 -87 -2 5 11 12 31 15 70 14 99 79 48 112 -21 14 -31
15 -62 6 -39 -12 -47 -10 -39 11 3 8 22 18 42 21 44 9 75 37 75 70 0 44 -43
59 -117 41 -27 -6 -33 -4 -33 9 0 9 11 18 28 22 59 13 74 21 90 46 14 24 14
28 -2 53 -17 25 -22 27 -65 22 -25 -4 -56 -9 -67 -13 -18 -5 -24 0 -35 33 -7
21 -14 32 -17 25 -2 -8 -15 0 -34 23 -24 27 -38 35 -65 35 -47 0 -125 20 -143
36 -12 12 -12 16 1 29 13 13 24 13 99 -1 83 -16 283 -15 350 1 19 5 21 4 10
-4 -9 -5 -47 -16 -85 -23 -84 -18 -71 -32 17 -19 95 16 195 71 270 149 l63 67
9 -43 c6 -34 5 -52 -9 -82z m-1687 78 c-19 -33 -18 -246 1 -281 21 -40 33 -33
27 16 -4 31 -3 35 3 17 19 -54 14 -65 -40 -89 -28 -12 -58 -28 -65 -36 -8 -7
-24 -22 -37 -32 -30 -24 -83 -101 -107 -158 -11 -25 -26 -45 -35 -45 -23 0
-19 12 20 63 19 25 35 55 35 66 0 28 11 52 21 45 5 -3 9 15 9 39 0 107 49 239
134 360 41 58 57 75 34 35z m-328 -28 c0 -5 -5 -10 -11 -10 -5 0 -7 5 -4 10 3
6 8 10 11 10 2 0 4 -4 4 -10z m2214 -51 c-3 -5 -10 -7 -15 -3 -5 3 -7 10 -3
15 3 5 10 7 15 3 5 -3 7 -10 3 -15z m-2056 -64 c-8 -17 -18 -25 -32 -23 -28 4
-30 23 -4 36 40 19 49 15 36 -13z m2167 -45 c-5 -8 -11 -8 -17 -2 -6 6 -7 16
-3 22 5 8 11 8 17 2 6 -6 7 -16 3 -22z m465 -50 c0 -24 -26 -38 -42 -22 -16
16 -2 42 22 42 13 0 20 -7 20 -20z m-1365 -53 c16 -39 16 -42 -1 -52 -35 -20
-54 -46 -54 -72 0 -52 18 -62 83 -48 27 5 42 4 50 -5 10 -10 6 -11 -16 -8 -15
3 -25 3 -23 0 3 -3 -8 -12 -26 -21 -17 -9 -36 -31 -44 -49 -7 -18 -9 -30 -4
-27 6 3 10 -3 10 -13 0 -18 -4 -19 -35 -12 -20 4 -35 4 -35 -1 0 -24 -18 -4
-43 47 -32 65 -30 110 7 124 50 19 68 88 42 165 -7 19 -4 20 33 17 36 -4 41
-8 56 -45z m-1301 11 c-8 -27 -23 -39 -44 -35 -24 4 -23 33 2 45 38 18 50 15
42 -10z m1085 -2 c-16 -34 -4 -73 29 -90 l27 -15 -27 -1 c-54 0 -83 73 -46
117 18 22 28 14 17 -11z m1326 14 c3 -5 -1 -10 -10 -10 -9 0 -13 5 -10 10 3 6
8 10 10 10 2 0 7 -4 10 -10z m-850 -74 c0 -21 -3 -22 -155 -61 -56 -15 -98
-21 -104 -15 -17 17 3 37 51 49 26 7 75 21 108 31 74 23 100 21 100 -4z
m-1602 -102 c-23 -17 -47 -14 -51 8 -2 12 8 22 30 31 30 13 33 12 36 -5 2 -11
-5 -26 -15 -34z m1087 12 c-12 -32 -107 -217 -120 -236 -25 -34 2 30 61 143
57 111 79 145 59 93z m1125 16 c-53 -42 -60 -46 -33 -19 16 15 31 27 35 27 4
0 3 -3 -2 -8z m-588 -67 c3 -9 3 -18 1 -21 -9 -8 -177 -54 -223 -61 -41 -5
-45 -4 -45 15 0 16 9 24 38 31 20 5 69 18 107 29 88 25 114 26 122 7z m513 12
c0 -2 -10 -12 -22 -23 l-23 -19 19 23 c18 21 26 27 26 19z m-2300 -97 c0 -5
-4 -10 -10 -10 -5 0 -10 5 -10 10 0 6 5 10 10 10 6 0 10 -4 10 -10z m2030 -20
c-6 -11 -13 -20 -16 -20 -2 0 0 9 6 20 6 11 13 20 16 20 2 0 0 -9 -6 -20z
m-2285 -20 c7 -11 -12 -40 -25 -40 -11 0 -21 30 -14 41 7 12 31 11 39 -1z
m1860 -9 c-6 -5 -28 -12 -50 -15 l-40 -6 35 14 c41 17 68 20 55 7z m855 -1 c0
-5 -4 -10 -10 -10 -5 0 -10 5 -10 10 0 6 5 10 10 10 6 0 10 -4 10 -10z m-654
-11 c10 -17 -8 -28 -85 -49 -70 -20 -75 -20 -99 -4 -15 10 -21 19 -15 21 114
38 187 50 199 32z m-335 -25 c7 -9 14 -23 15 -31 3 -21 -33 -134 -50 -156 -27
-36 -123 -49 -151 -20 -14 13 -15 27 -10 77 10 86 17 96 69 96 36 0 47 5 60
25 19 29 47 32 67 9z m1477 -152 c66 -4 68 -22 2 -22 -49 0 -50 -1 -50 -29 0
-17 -4 -33 -10 -36 -6 -4 -10 8 -10 29 0 35 -1 36 -42 37 -24 1 -54 5 -68 9
-18 6 -7 8 43 9 l67 1 2 53 1 52 6 -50 6 -50 53 -3z m-3148 8 c0 -5 -4 -10
-10 -10 -5 0 -10 5 -10 10 0 6 5 10 10 10 6 0 10 -4 10 -10z m627 -16 c8 -21
-13 -42 -28 -27 -13 13 -5 43 11 43 6 0 13 -7 17 -16z m284 -159 c34 -14 34
-14 7 -15 -23 0 -28 -4 -28 -25 0 -14 -4 -25 -10 -25 -5 0 -10 11 -10 25 0 17
-6 25 -17 26 -17 1 -17 2 0 6 9 2 17 9 17 14 0 12 2 12 41 -6z m1084 -5 c-28
-12 -45 -12 -45 0 0 6 15 10 33 9 27 0 29 -2 12 -9z m613 -58 c26 -4 19 -22
-9 -22 -13 0 -19 -7 -20 -22 -1 -22 -1 -22 -8 2 -4 14 -17 27 -31 31 l-25 6
25 4 c17 3 26 12 29 29 l4 25 6 -25 c4 -16 15 -26 29 -28z m-1067 -229 c-11
-5 -11 -7 0 -15 12 -8 12 -9 0 -6 -22 6 -25 28 -4 27 12 0 14 -2 4 -6z"/>
<path d="M1805 2618 c-31 -17 -55 -45 -55 -64 0 -15 2 -15 18 -2 20 17 68 38
86 38 7 0 30 -14 51 -30 44 -35 74 -45 110 -36 30 8 33 26 4 26 -25 0 -54 15
-99 52 -37 30 -80 36 -115 16z"/>
<path d="M1940 2480 c0 -28 -2 -30 -37 -30 -22 0 -49 9 -63 20 -33 26 -42 25
-29 -4 15 -32 49 -46 109 -46 45 0 50 2 50 23 0 33 -11 67 -21 67 -5 0 -9 -13
-9 -30z"/>
<path d="M2480 2489 c-14 -6 -51 -8 -85 -4 l-60 6 23 -20 c35 -31 85 -36 138
-16 39 15 50 15 70 5 28 -16 43 -6 28 18 -13 20 -77 26 -114 11z"/>
<path d="M2510 2401 c0 -28 -3 -31 -32 -31 -18 1 -50 7 -71 14 -37 14 -58 7
-34 -11 22 -17 105 -36 132 -29 21 5 25 12 25 41 0 18 -4 37 -10 40 -6 4 -10
-7 -10 -24z"/>
<path d="M2006 2350 c-55 -22 -86 -47 -126 -105 -25 -38 -47 -95 -35 -95 3 0
22 11 43 24 51 33 82 41 82 23 0 -9 14 -27 31 -41 17 -14 28 -30 25 -34 -3 -5
10 -23 28 -41 32 -31 38 -33 114 -34 81 0 112 10 112 39 0 13 80 54 104 54 7
0 25 -13 41 -30 35 -37 46 -31 39 22 -7 58 -38 123 -71 152 -90 78 -275 110
-387 66z m149 -122 c-3 -18 -7 -54 -10 -80 -7 -51 -14 -56 -60 -38 -23 9 -25
13 -20 47 11 63 14 69 48 86 44 22 46 21 42 -15z m70 -15 c36 -17 36 -18 30
-63 -8 -50 -17 -60 -59 -60 l-29 0 7 53 c3 28 6 60 6 70 0 21 1 21 45 0z"/>
</g>
</svg>
